Coordinates
version=1
nRows=8
nColumns=34
inDegrees=yes

Units are S.I. units (second, meters, Newtons, ...)
If the header above contains a line with 'inDegrees', this indicates whether rotational values are in degrees (yes) or radians (no).

endheader
time	pelvis_tilt	pelvis_list	pelvis_rotation	pelvis_tx	pelvis_ty	pelvis_tz	hip_flexion_r	hip_adduction_r	hip_rotation_r	knee_angle_r	ankle_angle_r	subtalar_angle_r	mtp_angle_r	hip_flexion_l	hip_adduction_l	hip_rotation_l	knee_angle_l	ankle_angle_l	subtalar_angle_l	mtp_angle_l	lumbar_extension	lumbar_bending	lumbar_rotation	arm_flex_r	arm_add_r	arm_rot_r	elbow_flex_r	pro_sup_r	arm_flex_l	arm_add_l	arm_rot_l	elbow_flex_l	pro_sup_l
      0.00000000	     -0.81666311	     -3.97412710	      3.13810855	     -8.93794444	      0.88149445	      0.48552446	     -0.78741182	      1.60271621	     -5.67527260	      6.43443913	      5.22909103	    -12.70450377	      0.00000000	      0.67354446	     -3.69583508	     -2.19996585	     11.02945430	      3.08458404	    -14.06394581	      0.00000000	      9.45436707	     -4.67088844	     29.84264301	   -239.50042913	   -114.33949279	     42.64293209	    108.94661790	     68.60348132	   -243.93322464	      8.49240009	   -249.46187958	      0.00000000	     22.70997951
      0.01666670	      4.58519051	     -2.70688610	      4.04660845	     -8.95910949	      0.88860097	      0.48197848	     -7.00176283	      1.39939323	     -6.56815352	      4.78432727	      5.39537240	    -13.04762044	      0.00000000	     -5.11620732	     -2.47332772	     -1.39555028	     10.37504188	      2.24262060	    -16.93647254	      0.00000000	      1.72250717	     -5.92244953	     30.59727135	   -237.66923860	   -113.68767682	     38.97335481	    110.38800233	     71.19496773	   -244.15174912	      9.04737574	   -247.06594286	      0.00000000	     24.26748289
      0.03333330	      4.15407850	     -1.57677139	      3.82678689	     -8.95732374	      0.89711608	      0.48406949	     -6.65909946	      0.33809361	     -9.28520514	      3.67030086	      4.10921973	    -11.64170007	      0.00000000	     -4.82920299	     -1.10081807	     -2.07939092	      9.40376654	      3.09869212	    -15.35439915	      0.00000000	      1.62699403	     -7.39079091	     33.26069802	   -237.43152515	   -117.96906630	     34.87221580	    112.80902727	     75.24484861	   -244.94896831	     10.81767474	   -246.06772070	      0.00000000	     25.23890650
      0.05000000	      6.08622624	     -1.48233341	      4.03769090	     -8.96400483	      0.89670798	      0.48312212	     -9.08101538	      0.23328635	     -9.35149215	      2.42763640	      2.35673683	    -11.52474938	      0.00000000	     -7.31490705	     -0.97878025	     -1.90251549	      7.96866449	      2.00833712	    -16.11706685	      0.00000000	     -1.13497654	     -7.34997850	     33.74010260	   -240.55315596	   -118.64015948	     29.35347388	    113.56486719	     79.06908314	   -244.18072294	     11.31084306	   -248.02716806	      0.00000000	     25.40145927
      0.06666670	      5.89576504	     -1.18679567	      4.36725881	     -8.96398172	      0.89942880	      0.48296455	     -9.13180714	     -0.04344913	     -9.21288763	      1.67433198	      1.99138458	    -11.25426540	      0.00000000	     -7.22102769	     -0.61267185	     -1.85377881	      7.45404894	      1.38014236	    -15.74452657	      0.00000000	     -0.89073537	     -7.72242916	     33.85209940	   -240.63743989	   -118.91773645	     29.05090413	    114.09840554	     79.19560670	   -244.49667555	     11.72810316	   -248.19099892	      0.00000000	     25.39763227
      0.08333330	      5.70753910	     -1.21272512	      4.43957140	     -8.95951862	      0.89397155	      0.48296920	     -9.41819208	     -0.05028577	     -9.00010626	      1.27084565	      1.74167480	    -11.01713690	      0.00000000	     -7.20807019	     -0.61185103	     -2.00658160	      7.18125105	      1.15222310	    -15.72375301	      0.00000000	     -0.50840413	     -7.89362826	     33.73763913	   -240.99808013	   -118.69442224	     29.02547673	    114.12317138	     79.24525219	   -244.01410082	     12.10316510	   -248.30124064	      0.00000000	     25.38015386
      0.10000000	      5.49390795	     -1.10313531	      4.49008206	     -8.93885504	      0.89362395	      0.48331192	     -9.79725420	     -0.16696752	     -9.21000856	      0.91296493	      0.80208672	    -11.00965192	      0.00000000	     -7.31237193	     -0.42906144	     -2.37540291	      6.51222709	      0.27019818	    -15.78497262	      0.00000000	     -0.17975654	     -8.12791250	     34.08626852	   -241.69026997	   -118.53699783	     28.85210922	    113.55507287	     79.37758415	   -243.62139960	     12.34769311	   -248.70264830	      0.00000000	     25.33075800
      0.11666670	      5.31628491	     -1.12247935	      4.31455965	     -8.94177561	      0.89326073	      0.48368648	     -9.95939817	     -0.15673905	     -9.43773185	      0.75892272	      0.69783386	    -11.19585361	      0.00000000	     -7.35751707	     -0.37314500	     -2.28940897	      6.18243741	      0.15978054	    -15.79731820	      0.00000000	     -0.01379161	     -8.09864522	     34.34939547	   -241.90131085	   -118.32135291	     28.85563245	    113.45609065	     79.40294631	   -243.11340717	     12.40624537	   -248.81587631	      0.00000000	     25.31316110
